<svg width="192" height="192" viewBox="0 0 192 192" fill="none" xmlns="http://www.w3.org/2000/svg">
  <rect width="192" height="192" rx="44" fill="#151A1D"/>
  <rect x="18" y="18" width="156" height="156" rx="34" stroke="#F1E6D7" stroke-opacity="0.16" stroke-width="2"/>
  <path d="M48 66H144" stroke="#F1E6D7" stroke-opacity="0.16" stroke-width="2"/>
  <path d="M48 96H144" stroke="#F1E6D7" stroke-opacity="0.16" stroke-width="2"/>
  <path d="M48 126H144" stroke="#F1E6D7" stroke-opacity="0.16" stroke-width="2"/>
  <rect x="44" y="42" width="104" height="108" rx="20" fill="url(#paint0_linear_208_2)"/>
  <rect x="58" y="60" width="76" height="14" rx="7" fill="#F7F0E6"/>
  <rect x="58" y="89" width="45" height="11" rx="5.5" fill="#F7F0E6" fill-opacity="0.9"/>
  <rect x="58" y="112" width="31" height="11" rx="5.5" fill="#F7F0E6" fill-opacity="0.62"/>
  <rect x="109" y="88" width="25" height="38" rx="12.5" fill="#151A1D"/>
  <circle cx="121.5" cy="101.5" r="4.5" fill="#CC4B1B"/>
  <path d="M94 18V38" stroke="#CC4B1B" stroke-width="6" stroke-linecap="round"/>
  <path d="M66 28L76 42" stroke="#106875" stroke-width="5" stroke-linecap="round"/>
  <path d="M126 28L116 42" stroke="#106875" stroke-width="5" stroke-linecap="round"/>
  <defs>
    <linearGradient id="paint0_linear_208_2" x1="44" y1="42" x2="148" y2="150" gradientUnits="userSpaceOnUse">
      <stop stop-color="#CC4B1B"/>
      <stop offset="1" stop-color="#106875"/>
    </linearGradient>
  </defs>
</svg>
